<?xml version="1.0" standalone="no"?><svg xmlns="http://www.w3.org/2000/svg" viewBox="0 0 1440 320"><path fill="#0099ff" fill-opacity="1" d="M0,96L24,122.7C48,149,96,203,144,234.7C192,267,240,277,288,277.3C336,277,384,267,432,229.3C480,192,528,128,576,128C624,128,672,192,720,218.7C768,245,816,235,864,197.3C912,160,960,96,1008,85.3C1056,75,1104,117,1152,165.3C1200,213,1248,267,1296,288C1344,309,1392,299,1416,293.3L1440,288L1440,320L1416,320C1392,320,1344,320,1296,320C1248,320,1200,320,1152,320C1104,320,1056,320,1008,320C960,320,912,320,864,320C816,320,768,320,720,320C672,320,624,320,576,320C528,320,480,320,432,320C384,320,336,320,288,320C240,320,192,320,144,320C96,320,48,320,24,320L0,320Z"></path></svg>